<svg xmlns="http://www.w3.org/2000/svg" xmlns:xlink="http://www.w3.org/1999/xlink" width="60" height="62" viewBox="0 0 60 62">
    <defs>
        <path id="k66klibhxa" d="M0 61.304L60 61.304 60 0 0 0z"/>
    </defs>
    <g fill="none" fill-rule="evenodd">
        <g>
            <g transform="translate(-392 -649) translate(392 649)">
                <path fill="#BA222E" d="M30 16.957c-4.847 0-14.348 2.363-14.348 7.826v11.739c0 2.97 2.357 5.706 5.218 6.366v18.416h2.608V27.391H20.87v12.762c-1.52-.627-2.61-2.236-2.61-3.631v-11.74c0-2.976 7.123-5.217 11.74-5.217s11.74 2.241 11.74 5.218v11.739c0 1.395-1.09 3.004-2.61 3.631V27.391h-2.608v33.913h2.608V42.888c2.86-.66 5.218-3.396 5.218-6.366v-11.74c0-5.462-9.501-7.825-14.348-7.825M46.957 20.87c-.443 0-.921.023-1.426.07l.242 2.597c.42-.04.818-.059 1.184-.059 4.103 0 10.434 2.241 10.434 5.218v11.739c0 1.347-1.282 2.139-2.608 2.452V31.304h-2.61v30h2.61V45.545C57.5 45.117 60 43.358 60 40.435v-11.74c0-5.462-8.637-7.825-13.043-7.825M26.087 6.522c0-2.34 1.573-3.913 3.913-3.913s3.913 1.573 3.913 3.913V9.13c0 2.34-1.573 3.913-3.913 3.913s-3.913-1.573-3.913-3.913V6.522zM30 15.652c3.779 0 6.522-2.743 6.522-6.522V6.522C36.522 2.743 33.779 0 30 0c-3.779 0-6.522 2.743-6.522 6.522V9.13c0 3.78 2.743 6.522 6.522 6.522z"/>
                <mask id="ismey2v0tb" fill="#fff">
                    <use xlink:href="#k66klibhxa"/>
                </mask>
                <path fill="#BA222E" d="M28.696 61.304L31.304 61.304 31.304 40.435 28.696 40.435zM43.043 10.435c0-2.34 1.574-3.913 3.914-3.913s3.913 1.573 3.913 3.913v2.608c0 2.34-1.573 3.914-3.913 3.914s-3.914-1.574-3.914-3.914v-2.608zm3.914 9.13c3.778 0 6.521-2.743 6.521-6.522v-2.608c0-3.779-2.743-6.522-6.521-6.522-3.78 0-6.522 2.743-6.522 6.522v2.608c0 3.78 2.743 6.522 6.522 6.522zM0 28.696v11.739c0 2.923 2.5 4.682 5.217 5.11v15.76h2.61v-30h-2.61v11.582c-1.326-.313-2.608-1.105-2.608-2.452v-11.74c0-2.976 6.331-5.217 10.434-5.217.366 0 .764.02 1.184.059l.242-2.597c-.505-.047-.983-.07-1.426-.07C8.637 20.87 0 23.233 0 28.696M9.13 10.435c0-2.34 1.573-3.913 3.913-3.913s3.914 1.573 3.914 3.913v2.608c0 2.34-1.574 3.914-3.914 3.914S9.13 15.383 9.13 13.043v-2.608zm3.913 9.13c3.78 0 6.522-2.743 6.522-6.522v-2.608c0-3.779-2.743-6.522-6.522-6.522-3.778 0-6.521 2.743-6.521 6.522v2.608c0 3.78 2.743 6.522 6.521 6.522z" mask="url(#ismey2v0tb)"/>
            </g>
        </g>
    </g>
</svg>
