<svg xmlns="http://www.w3.org/2000/svg" xmlns:xlink="http://www.w3.org/1999/xlink" width="66" height="33" viewBox="0 0 66 33">
    <defs>
        <path id="x8om7mcmna" d="M0 0L66.003 0 66.003 33 0 33z"/>
    </defs>
    <g fill="none" fill-rule="evenodd">
        <g>
            <g>
                <g transform="translate(-687 -664) translate(687 664)">
                    <mask id="hxirg3w2ib" fill="#fff">
                        <use xlink:href="#x8om7mcmna"/>
                    </mask>
                    <path fill="#BA222E" d="M63.253 24.75h-5.405c-.35-3.849-3.59-6.875-7.527-6.875-3.947 0-7.192 3.04-7.53 6.901-3.186.003-6.796-.005-10.427-.014-3.58-.008-7.128-.015-10.266-.013-.35-3.848-3.59-6.874-7.527-6.874-3.938 0-7.179 3.026-7.528 6.875H7.01c-2.185 0-3.454-1.008-3.996-3.172-.535-2.137-.252-7.07.848-10.578h3.405c.283 0 .56-.088.792-.252 1.497-1.056 2.8-2.087 4.056-3.082 3.603-2.854 6.206-4.916 10.02-4.916h10.781c4.23 0 8.516 2.354 14.332 7.873.206.194.466.32.746.362 7.72 1.132 15.26 5.18 15.26 6.89v6.875zm-12.932 5.5c-2.653 0-4.812-2.159-4.812-4.813 0-2.653 2.159-4.812 4.812-4.812 2.653 0 4.813 2.159 4.813 4.813 0 2.653-2.16 4.812-4.813 4.812zm-35.75 0c-2.653 0-4.812-2.159-4.812-4.813 0-2.653 2.159-4.812 4.812-4.812 2.653 0 4.813 2.159 4.813 4.813 0 2.653-2.16 4.812-4.813 4.812zM48.827 8.332C44.39 4.162 39.053 0 32.915 0H22.134c-4.771 0-7.996 2.553-11.728 5.51-1.126.892-2.288 1.813-3.58 2.74H2.884c-.57 0-1.08.35-1.283.881C.163 12.87-.435 19.12.346 22.245c.847 3.39 3.213 5.255 6.663 5.255h.293c.9 3.17 3.815 5.5 7.27 5.5 3.453 0 6.368-2.33 7.269-5.5 3.2-.003 6.84.004 10.516.012 3.228.009 6.461.015 9.379.015h1.323C43.967 30.681 46.876 33 50.32 33c3.454 0 6.37-2.33 7.269-5.5h7.038c.76 0 1.375-.616 1.375-1.375v-8.25c0-4.576-10.788-8.504-17.176-9.543z" mask="url(#hxirg3w2ib)"/>
                </g>
                <path fill="#BA222E" d="M41.12 11H19.953L16.23 7.278l-1.944 1.944 4.125 4.125c.257.259.607.403.972.403h22c.174 0 .346-.033.508-.098l2.75-1.095-1.017-2.555L41.12 11z" transform="translate(-687 -664) translate(687 664)"/>
            </g>
        </g>
    </g>
</svg>
